# xmcd
#
# Track frame offsets:
#	187
#	19040
#	36465
#	55137
#	71215
#	86780
#	115105
#	133100
#	150865
#	166475
#	181685
#	200437
#	219317
#
# Disc length: 3135 seconds
#
# Revision: 1
# Processed by: cddbd v1.5PL3 Copyright (c) Steve Scherf et al.
# Submitted via: CDex 1.50Beta5
#
DISCID=af0c3d0d
DTITLE=The Black Crowes - Three Snakes And One Charm
DYEAR=1900
DGENRE=Rock
TTITLE0=Under A Mountain
TTITLE1=Good Friday
TTITLE2=Nebakanezer
TTITLE3=One Mirror Too Many
TTITLE4=Blackberry
TTITLE5=Girl From A Pawnshop
TTITLE6=(Only) Halfway To Everywhere
TTITLE7=Bring On, Bring On
TTITLE8=How Much For Your Wings?
TTITLE9=Let Me Share The Ride
TTITLE10=Better When You're Not Alone
TTITLE11=Evil Eye
TTITLE12=Just Say You're Sorry
EXTD=
EXTT0=
EXTT1=
EXTT2=
EXTT3=
EXTT4=
EXTT5=
EXTT6=
EXTT7=
EXTT8=
EXTT9=
EXTT10=
EXTT11=
EXTT12=
PLAYORDER=
